HIERARCHY
ROOT Hips
{
    OFFSET 0.000000 0.000000 0.000000
    CHANNELS 6 Xposition Yposition Zposition Zrotation Xrotation Yrotation
        JOINT Chest
        {
            OFFSET -0.000000 31.780966 -0.000000
            CHANNELS 3 Zrotation Xrotation Yrotation
            JOINT Neck
            {
                OFFSET -0.000000 23.880144 0.000000
                CHANNELS 3 Zrotation Xrotation Yrotation
                JOINT Head
                {
                    OFFSET -0.000000 10.511110 0.000000
                    CHANNELS 3 Zrotation Xrotation Yrotation
                    End Site
                    {
                        OFFSET -0.000000 16.244448 0.000000
                    }
                }
            }
            JOINT LeftCollar
            {
                OFFSET -0.000000 23.880144 0.000000
                CHANNELS 3 Zrotation Xrotation Yrotation
                JOINT LeftShoulder
                {
                    OFFSET 19.111111 -0.000000 0.000000
                    CHANNELS 3 Zrotation Xrotation Yrotation
                    JOINT LeftElbow
                    {
                        OFFSET 21.456259 0.000000 0.000000
                        CHANNELS 3 Zrotation Xrotation Yrotation
                        JOINT LeftWrist
                        {
                            OFFSET 25.693237 0.000000 0.000000
                            CHANNELS 3 Zrotation Xrotation Yrotation
                            End Site
                            {
                                OFFSET 0.000000 -14.333333 0.000000
                            }
                        }
                    }
                }
            }
            JOINT RightCollar
            {
                OFFSET -0.000000 23.880144 0.000000
                CHANNELS 3 Zrotation Xrotation Yrotation
                JOINT RightShoulder
                {
                    OFFSET -19.111111 0.000000 0.000000
                    CHANNELS 3 Zrotation Xrotation Yrotation
                    JOINT RightElbow
                    {
                        OFFSET -21.456259 0.000000 0.000000
                        CHANNELS 3 Zrotation Xrotation Yrotation
                        JOINT RightWrist
                        {
                            OFFSET -25.693237 0.000000 0.000000
                            CHANNELS 3 Zrotation Xrotation Yrotation
                            End Site
                            {
                                OFFSET -0.000000 -14.333333 0.000000
                            }
                        }
                    }
                }
            }
        }
    JOINT LeftHip
    {
        OFFSET 11.466667 0.000000 0.000000
        CHANNELS 3 Zrotation Xrotation Yrotation
        JOINT LeftKnee
        {
            OFFSET -0.000000 -37.225342 0.000000
            CHANNELS 3 Zrotation Xrotation Yrotation
            JOINT LeftAnkle
            {
                OFFSET -0.000000 -35.678333 0.000000
                CHANNELS 3 Zrotation Xrotation Yrotation
                End Site
                {
                    OFFSET -0.000000 -4.777778 16.244448
                }
            }
        }
    }
    JOINT RightHip
    {
        OFFSET -11.466667 0.000000 0.000000
        CHANNELS 3 Zrotation Xrotation Yrotation
        JOINT RightKnee
        {
            OFFSET -0.000000 -37.225342 0.000000
            CHANNELS 3 Zrotation Xrotation Yrotation
            JOINT RightAnkle
            {
                OFFSET -0.000000 -35.678333 0.000000
                CHANNELS 3 Zrotation Xrotation Yrotation
                End Site
                {
                    OFFSET -0.000000 -4.777778 16.244448
                }
            }
        }
    }
}
MOTION
Frames:    14
Frame Time:    0.010000
19.444817    83.752708    -63.305645    -0.201435    -5.199014    -67.715607    -4.000021    12.581029    5.625811    11.460644    3.781285    16.279352    -21.293772    5.384590    18.603834    -20.873415    -0.509400    2.916782    -36.308445    30.458677    -19.667604    52.124222    -18.132914    -36.176182    105.477188    30.304813    82.461266    20.409458    0.293606    1.821214    22.350994    37.956234    26.967548    13.731593    7.315575    56.057381    -101.624992    -23.385246    32.045120    -5.220896    -14.746972    6.398236    2.397143    13.440833    -10.705497    0.140248    -6.738811    16.909880    2.621258    -1.262833    1.054137    -1.709047    8.890021    -5.320215    -2.476304    -4.858102    -22.635382    
19.362429    83.729279    -63.266243    -0.149560    -5.082397    -67.874268    -4.066074    12.569153    5.479394    13.148183    3.258806    15.175643    -21.356577    2.685588    15.988708    -20.383976    -0.301518    0.598066    -36.739761    30.444227    -18.802427    51.941189    -18.201267    -36.672729    106.084892    30.876606    80.990196    20.667730    0.122402    -0.270627    22.827919    37.239902    27.261131    13.765775    7.295081    55.643269    -101.775658    -24.258751    32.416763    -5.166097    -14.847543    6.195205    2.372704    13.760500    -10.348559    0.725502    -6.844176    16.434427    2.709538    -1.225549    1.068265    -1.734851    8.807760    -4.599985    -2.111604    -5.030005    -23.246109    
19.257444    83.687126    -63.193577    -0.098383    -5.005407    -68.103645    -3.994257    12.683828    5.870852    13.126540    2.826297    15.342134    -21.565182    3.139707    16.276539    -20.402010    -0.204791    0.614214    -36.822979    29.776690    -18.919176    51.877357    -18.312157    -36.880085    105.557014    30.431055    81.398659    20.377939    0.025076    -0.357001    22.176579    37.736515    28.143314    13.789324    7.279679    55.663048    -102.523918    -24.588339    31.411421    -5.100896    -14.758760    6.020972    2.308179    13.683487    -10.224624    0.127479    -6.947141    16.422773    2.730841    -1.166662    1.101295    -1.714920    8.656948    -4.556439    -2.353320    -4.958883    -23.067001    
19.183256    83.672966    -63.151127    -0.076588    -4.941747    -68.253754    -3.990806    12.704726    5.969618    13.232770    2.687383    15.341567    -21.651070    3.154641    16.257124    -20.337128    -0.138602    0.402606    -36.971523    29.394096    -18.774660    51.809582    -18.408115    -37.094631    105.553787    30.341284    81.221336    20.286791    -0.042772    -0.501386    22.109369    37.872295    28.419043    13.846642    7.302079    55.560452    -102.831367    -24.953449    31.139132    -5.045897    -14.713982    5.890439    2.257630    13.698668    -10.036066    0.129784    -6.971295    16.344912    2.762949    -1.104581    1.112521    -1.711853    8.559354    -4.326695    -2.336199    -4.983220    -23.160950    
19.097897    83.658730    -63.101418    -0.051750    -4.868640    -68.422974    -3.987084    12.716690    6.078837    13.248545    2.588887    15.410999    -21.710661    3.162951    16.323088    -20.291769    -0.094085    0.309101    -37.119701    28.974426    -18.622929    51.730495    -18.495985    -37.330154    105.551781    30.235853    81.156044    20.167484    -0.075962    -0.530838    22.002909    38.043682    28.728922    13.887638    7.326354    55.479992    -103.125557    -25.308680    30.811729    -4.981684    -14.654920    5.754444    2.202916    13.685061    -9.817730    0.131744    -6.962166    16.266571    2.798404    -1.034619    1.115538    -1.709285    8.449926    -4.080730    -2.323444    -5.008863    -23.240538    
19.002474    83.643982    -63.044273    -0.023599    -4.786475    -68.604774    -3.983235    12.724789    6.192781    13.275861    2.485192    15.483336    -21.782890    3.158441    16.385508    -20.249893    -0.059628    0.218042    -37.244995    28.575670    -18.460951    51.640175    -18.586006    -37.572590    105.554588    30.110819    81.208046    20.037703    -0.094482    -0.584329    21.843561    38.225792    29.109640    13.921585    7.297255    55.436028    -103.425026    -25.645443    30.442076    -4.911464    -14.583223    5.623726    2.152164    13.636854    -9.576082    0.128623    -6.908361    16.182728    2.837880    -0.960092    1.107046    -1.708936    8.333242    -3.829834    -2.315441    -5.036139    -23.297108    
18.897659    83.628609    -62.979507    0.006332    -4.696818    -68.792450    -3.978366    12.729006    6.305575    13.312168    2.379622    15.558769    -21.867876    3.153992    16.451172    -20.215366    -0.031543    0.139841    -37.329308    28.223019    -18.306290    51.561558    -18.676350    -37.796593    105.542786    29.949532    81.375420    19.899349    -0.092980    -0.660277    21.634632    38.407261    29.546902    13.889510    7.300389    55.438793    -103.630302    -25.906414    30.016289    -4.838917    -14.498870    5.512424    2.114069    13.551558    -9.323360    0.114038    -6.804434    16.091946    2.881642    -0.881654    1.086591    -1.712217    8.213489    -3.589805    -2.312109    -5.065009    -23.320274    
18.783354    83.612862    -62.906872    0.033815    -4.602578    -68.980095    -3.972964    12.730520    6.411955    13.358950    2.275713    15.633687    -21.963268    3.150235    16.517086    -20.190790    0.002767    0.076245    -37.360775    27.926258    -18.169794    51.495018    -18.759945    -37.993515    105.516891    29.761089    81.638435    19.756012    -0.119183    -0.758611    21.385004    38.623554    30.025049    13.794748    7.249259    55.498562    -103.845108    -26.108086    29.521923    -4.767085    -14.399185    5.438812    2.096223    13.430763    -9.080002    0.079335    -6.651842    15.997865    2.929547    -0.795917    1.057616    -1.719613    8.094075    -3.378623    -2.313583    -5.095212    -23.300882    
18.658459    83.597382    -62.826000    0.050780    -4.508080    -69.163261    -3.967251    12.731730    6.507593    13.412350    2.183954    15.707081    -22.064209    3.144646    16.582647    -20.179802    -0.017005    0.030259    -37.345150    27.754658    -18.034180    51.520161    -18.865597    -38.108562    105.440369    29.546993    81.990135    19.613590    -0.151428    -0.868630    21.123474    38.834991    30.495991    13.727859    7.222488    55.588394    -104.061630    -26.251236    29.026161    -4.697206    -14.277519    5.426386    2.103991    13.280188    -8.875487    0.016947    -6.457816    15.906419    2.981253    -0.693803    1.027120    -1.730891    7.977104    -3.212540    -2.319324    -5.127137    -23.234751    
18.521544    83.582970    -62.736416    0.048251    -4.418004    -69.338867    -3.961857    12.735099    6.589330    13.470356    2.116325    15.776539    -22.167126    3.132232    16.645399    -20.185493    0.010970    -0.001491    -37.281460    27.599585    -17.903973    51.466011    -18.919474    -38.247932    105.403236    29.347878    82.328537    19.479389    -0.169048    -0.979920    20.864964    39.006699    30.936817    13.690490    7.238363    55.702473    -104.243301    -26.329489    28.560123    -4.629131    -14.126463    5.497054    2.138789    13.108527    -8.740133    -0.073429    -6.231625    15.821419    3.035843    -0.564740    1.003489    -1.745176    7.864746    -3.101795    -2.327132    -5.162688    -23.125200    
18.371613    83.570480    -62.637466    0.020054    -4.335767    -69.504326    -3.957255    12.742030    6.655146    13.529134    2.081958    15.840352    -22.267639    3.107011    16.703709    -20.209679    0.010976    -0.024500    -37.175159    27.537010    -17.779810    51.505146    -18.999075    -38.306122    105.320213    29.132317    82.645706    19.358490    -0.201141    -1.082409    20.623846    39.157387    31.327030    13.644523    7.249977    55.846188    -104.374229    -26.345049    28.129883    -4.561764    -13.942412    5.663554    2.197088    12.926717    -8.695714    -0.182634    -5.981982    15.742578    3.091934    -0.402151    0.993092    -1.761642    7.761242    -3.046943    -2.332702    -5.206450    -22.983423    
18.208481    83.560623    -62.528084    -0.034819    -4.262868    -69.657074    -3.955366    12.752047    6.703011    13.586125    2.084154    15.897669    -22.361052    3.062922    16.755831    -20.251255    -0.023262    -0.047062    -37.052731    27.537712    -17.622658    51.548431    -19.075100    -38.348270    105.261482    28.964617    82.874863    19.256304    -0.179347    -1.169447    20.417126    39.210575    31.637243    13.744783    7.335802    55.980801    -104.561356    -26.332884    27.778925    -4.494334    -13.727781    5.923420    2.270523    12.746767    -8.748808    -0.293633    -5.716479    15.666576    3.147336    -0.206211    0.998760    -1.779439    7.672910    -3.038693    -2.329886    -5.265261    -22.827173    
18.032959    83.553886    -62.407143    -0.113220    -4.199430    -69.794594    -3.958719    12.764026    6.731214    13.637411    2.120248    15.948909    -22.441206    2.994696    16.800547    -20.306875    0.004774    -0.076715    -36.915092    27.481359    -17.454424    51.485271    -19.089613    -38.462082    105.275864    28.840008    82.918999    19.171377    -0.217136    -1.237340    20.237614    39.285782    31.886866    13.714066    7.351896    56.162182    -104.539185    -26.237410    27.487810    -4.426778    -13.489560    6.260313    2.347756    12.580578    -8.891782    -0.383522    -5.441476    15.588968    3.199264    0.017809    1.020100    -1.797968    7.606257    -3.061182    -2.312356    -5.345987    -22.677206    
17.847294    83.550400    -62.274162    -0.208432    -4.144454    -69.914116    -3.969814    12.776005    6.738793    13.679286    2.183404    15.994461    -22.502642    2.899068    16.836643    -20.372017    0.024667    -0.118315    -36.770248    27.425266    -17.284006    51.459892    -19.132462    -38.562328    105.317528    28.764917    82.786507    19.104395    -0.243646    -1.284025    20.108835    39.312099    32.032547    13.820370    7.438433    56.327583    -104.653450    -26.134455    27.232222    -4.360119    -13.238766    6.645152    2.416569    12.439042    -9.103486    -0.425149    -5.161546    15.505260    3.245027    0.260046    1.053230    -1.816920    7.566969    -3.095006    -2.276163    -5.453552    -22.553865    
